<svg xmlns="http://www.w3.org/2000/svg" width="35" height="35" viewBox="0 0 35 35"><defs><style>.cls-1{fill:#f2f2f2;}</style></defs><g id="drawing"><g id="Logos_Developer-Communities_developer-community-github-1" data-name="Logos / Developer-Communities / developer-community-github-1"><g id="Group_109" data-name="Group 109"><g id="Regular_109" data-name="Regular 109"><path id="Shape_305" data-name="Shape 305" class="cls-1" d="M21.25,33.43a.73.73,0,0,0,.3.6.78.78,0,0,0,.66.12,17,17,0,1,0-9.42,0,.78.78,0,0,0,.66-.12.73.73,0,0,0,.3-.6V29.88a4.24,4.24,0,0,1-5.21-2.6,9.08,9.08,0,0,0-2.06-3.45c4.31,1.05,4.39,3.84,7.32,2.53a6,6,0,0,1,.95-2.75c-3.32-.38-6.83-.91-6.83-6.65a5.8,5.8,0,0,1,1.51-4,5.42,5.42,0,0,1,.15-4s1.26-.41,4.13,1.51a14.23,14.23,0,0,1,7.55,0C24.12,8.56,25.37,9,25.37,9a5.37,5.37,0,0,1,.15,4A5.8,5.8,0,0,1,27,17c0,5.75-3.5,6.27-6.84,6.63a5.82,5.82,0,0,1,1,3.52Z"/></g></g></g></g></svg>