<svg xmlns="http://www.w3.org/2000/svg" width="225" height="175" viewBox="0 0 225 175"><defs><style>.cls-1{fill:none;}.cls-2{fill:#d7f205;}</style></defs><g id="drawing"><path class="cls-1" d="M151.81,111.19l-10.16-2.62-24.78-3.88c0,.39.09.87.13,1.28Z"/><path class="cls-1" d="M131.12,122.77a4.81,4.81,0,0,0-3.38,8.23l1.1.79a4.75,4.75,0,0,0,2.28.6,4.81,4.81,0,1,0,0-9.62Z"/><path class="cls-1" d="M151.89,123.43l.47,0-2.69-7.15-12.59-1.86-2.37,8.33c4.37.75,8.66,1.78,12.67,2.8A5.81,5.81,0,0,1,151.89,123.43Z"/><path class="cls-1" d="M130.87,121.78l-2.17-1.33a4.54,4.54,0,0,0-1-.11,4.81,4.81,0,0,0-3.6,8l1.57,1.13a6,6,0,0,1-.32-1.9A5.81,5.81,0,0,1,130.87,121.78Z"/><path class="cls-1" d="M155.08,125.88l-2.15-1.33a4.55,4.55,0,0,0-1-.12,4.81,4.81,0,0,0-3.6,8l1.57,1.14a6,6,0,0,1-.32-1.9A5.81,5.81,0,0,1,155.08,125.88Z"/><path class="cls-1" d="M150.54,131.68a4.79,4.79,0,0,0,1.43,3.41l1.11.8a4.71,4.71,0,0,0,2.27.6,4.8,4.8,0,0,0,2.76-8.74l-.28-.18a4.78,4.78,0,0,0-7.29,4.11Z"/><polygon class="cls-1" points="150.81 116.48 153.53 123.74 156.83 125.78 153.77 116.91 150.81 116.48"/><polygon class="cls-1" points="136.08 114.3 132.83 113.82 129.56 119.8 133.78 122.4 136.08 114.3"/><path class="cls-1" d="M107.6,121.87l-.07,0a4.8,4.8,0,0,0-5.86,7.52l1.11.8a4.74,4.74,0,0,0,2.27.6,4.8,4.8,0,0,0,2.55-8.88Z"/><path class="cls-1" d="M107.08,145.69c-8.7,0-15.78,4.14-15.78,9.23s7.08,9.23,15.78,9.23,15.78-4.14,15.78-9.23S115.78,145.69,107.08,145.69Z"/><path class="cls-1" d="M161.08,130.73a5.89,5.89,0,0,1,.08,1,5.81,5.81,0,0,1-9.84,4.18l-3.73-2.71a5.76,5.76,0,0,1-.8-6.69c-3.55-.9-7.3-1.79-11.12-2.49a5.81,5.81,0,0,1-8.58,7.79l-3.73-2.7a5.78,5.78,0,0,1-.47-7.23c-4.8-.49-9.72-.8-14.63-.9l-.08.11a5.81,5.81,0,0,1-3.13,10.71,5.76,5.76,0,0,1-4-1.64l-3.74-2.7a5.79,5.79,0,0,1-1-6.36c-1.56.06-3.13.14-4.67.24A5.83,5.83,0,0,1,86,125.86a5.77,5.77,0,0,1-3.37-1.09h0l-.14-.12-.26-.21-2.32-1.86q-6.15.81-12,2c-.82,2-4.5,9.42-14.49,14.46A32,32,0,0,1,39.17,142a54.9,54.9,0,0,1-12.71-1.55C11.79,149.86,3.17,162,3.17,175h19a6.23,6.23,0,0,1-.28-1c-1.2-5.87,6.72-12.46,17.64-14.68s20.78.76,22,6.63c.62,3-1.23,6.29-4.66,9H159.74c-6.26-5.34-8.88-12.64-5.82-17.4,3.49-5.44,13.11-5.51,21.44-.16,7.37,4.74,11.28,12.15,9.68,17.56h20C205,157.32,188.61,140.82,161.08,130.73Zm-54,34.42c-9.25,0-16.78-4.59-16.78-10.23s7.53-10.23,16.78-10.23,16.78,4.59,16.78,10.23S116.33,165.15,107.08,165.15Z"/><path class="cls-1" d="M127.66,119.34a5.29,5.29,0,0,1,1,.08l3.15-5.75-16.65-2.46L109,120c5,.12,9.91.44,14.75,1A5.74,5.74,0,0,1,127.66,119.34Z"/><path class="cls-1" d="M174.82,158.28a22.65,22.65,0,0,0-11.89-3.83c-3.59,0-6.59,1.23-8.17,3.7-2.93,4.56,0,11.78,6.59,16.85H184C185.72,170,182,162.87,174.82,158.28Z"/><path class="cls-1" d="M60.55,166.19c-.83-4.08-6.49-6.58-13.75-6.58a35.09,35.09,0,0,0-7,.73c-10.38,2.11-17.95,8.17-16.86,13.5a5.31,5.31,0,0,0,.4,1.16h32C59.06,172.38,61.16,169.17,60.55,166.19Z"/><polygon class="cls-1" points="112.47 110.82 111.89 110.74 103.65 118.26 107.32 120.53 114.02 111.05 112.47 110.82"/><path class="cls-1" d="M126.71,48.33l0-.06a4.27,4.27,0,0,0-.63-.57c-3.41-2.55-10.24.43-15.66,6.78l14.29,9.11C128.33,57.42,129.22,51.19,126.71,48.33Z"/><path class="cls-1" d="M104.79,120.14l-2.16-1.33a4.55,4.55,0,0,0-1-.12,4.82,4.82,0,0,0-4.81,4.81A4.77,4.77,0,0,0,98,126.7l1.57,1.14a5.78,5.78,0,0,1,5.22-7.7Z"/><path class="cls-1" d="M101.59,117.69a6.59,6.59,0,0,1,1.09.1l7.93-7.24-6.87-1-14.27,5.88a5.79,5.79,0,0,1,2.32,4.64c0,.08,0,.15,0,.23,1.72-.11,3.45-.2,5.17-.27A5.81,5.81,0,0,1,101.59,117.69Z"/><polygon class="cls-1" points="101.81 109.25 100.64 109.08 100.41 109.04 86.38 113.48 88.43 114.75 101.81 109.25"/><path class="cls-1" d="M102,102.36,86.87,100l10.6,3,4.49.67C102,103.29,102,102.74,102,102.36Z"/><path class="cls-1" d="M103.29,48.35a3.29,3.29,0,1,0,3.29,3.29A3.29,3.29,0,0,0,103.29,48.35Z"/><path class="cls-1" d="M81.17,120.05A4.81,4.81,0,1,0,86,115.24,4.82,4.82,0,0,0,81.17,120.05Z"/><path class="cls-1" d="M80.42,121.75a6,6,0,0,1-.25-1.7,5.81,5.81,0,0,1,5.56-5.8L85,113.8a4.55,4.55,0,0,0-1-.12,4.81,4.81,0,0,0-3.56,8Z"/><path class="cls-1" d="M53,138.15a30.23,30.23,0,0,0,13.71-13.3c-15.33,3.24-28.63,8.37-39,14.82C31.42,140.5,44,142.71,53,138.15Z"/><polygon class="cls-1" points="100.33 108.02 105.55 108.79 105.55 108.79 111.56 109.68 111.57 109.68 115.77 110.3 115.77 110.3 132.29 112.73 132.29 112.73 137.36 113.48 137.36 113.48 160.23 116.86 160.67 113.53 97.83 104.11 97.83 107.66 100.32 108.02 100.33 108.02"/><path class="cls-1" d="M122.75,66.44c.49-.66.94-1.33,1.37-2l-17-10.85a4.22,4.22,0,0,1-1.45,1.63l14.7,14.09A34.51,34.51,0,0,0,122.75,66.44Z"/><polygon class="cls-1" points="79.54 102.6 96.83 107.42 96.83 103.9 79.54 98.94 79.54 102.6"/><path class="cls-1" d="M128.18,70.45A17.35,17.35,0,0,0,129,51.38c.56,4.23-1.37,10.2-5.44,15.65S114.2,76.1,110,76.71A17.24,17.24,0,0,0,128.18,70.45Z"/><path class="cls-1" d="M107.51,58.38c-4.38,7-5.16,14-1.79,16.54a5.64,5.64,0,0,0,.67.4l.17.08c3.24,1.46,8.45-.76,13.09-5.38Z"/><path class="cls-1" d="M116,105.82c-.06-.64-.14-1.39-.16-1.61-.61-1.6-3-3.15-5-3.68a11.49,11.49,0,0,0-5.15-.26c-1.48.3-2.47.93-2.73,1.74,0,.57,0,1.38,0,1.86Z"/><path class="cls-1" d="M114.18,101c1.69-2.81,11.72-20,17.26-29.45L130.3,69A17.72,17.72,0,0,1,129,71.05a17.44,17.44,0,0,1-3,3.1l1.14,1.1L110.07,99.34c.35.06.7.13,1.05.22A11.16,11.16,0,0,1,114.18,101Z"/><path class="cls-2" d="M107.08,144.69c-9.25,0-16.78,4.59-16.78,10.23s7.53,10.23,16.78,10.23,16.78-4.59,16.78-10.23S116.33,144.69,107.08,144.69Zm0,19.46c-8.7,0-15.78-4.14-15.78-9.23s7.08-9.23,15.78-9.23,15.78,4.14,15.78,9.23S115.78,164.15,107.08,164.15Z"/><path class="cls-2" d="M26.46,140.42A54.9,54.9,0,0,0,39.17,142,32,32,0,0,0,53.43,139c10-5,13.67-12.49,14.49-14.46q5.81-1.17,12-2l2.32,1.86.26.21.14.12h0A5.77,5.77,0,0,0,86,125.86a5.83,5.83,0,0,0,5.68-4.57c1.54-.1,3.11-.18,4.67-.24a5.79,5.79,0,0,0,1,6.36l3.74,2.7a5.76,5.76,0,0,0,4,1.64A5.81,5.81,0,0,0,108.18,121l.08-.11c4.91.1,9.83.41,14.63.9a5.78,5.78,0,0,0,.47,7.23l3.73,2.7a5.81,5.81,0,0,0,8.58-7.79c3.82.7,7.57,1.59,11.12,2.49a5.76,5.76,0,0,0,.8,6.69l3.73,2.71a5.8,5.8,0,0,0,9.76-5.13C188.61,140.82,205,157.32,205,175h1c0-18.26-16.92-35.25-45.27-45.46a5.89,5.89,0,0,0-2.58-2.94l-3.29-9.52,6.21.91.7-5.31-.46-.06-19.48-5-25.21-4a5.9,5.9,0,0,0-1.65-2c2-3.25,16.77-28.64,17.44-29.78l.13-.22-1.68-3.79a18.28,18.28,0,0,0-3.51-20.25h0a5.89,5.89,0,0,0-.74-.67c-3.92-2.93-11.24.1-17.11,7l-2.06-1.31a4.62,4.62,0,0,0,.12-1,4.29,4.29,0,1,0-4.29,4.29,4.09,4.09,0,0,0,1.4-.26l2.08,2c-4.75,7.46-5.47,15.2-1.64,18a5.43,5.43,0,0,0,.57.35v0l.2.1,0,0a18.25,18.25,0,0,0,19.28-1.45l.63.61L109,99.18a12,12,0,0,0-3.45.11,4.44,4.44,0,0,0-3.35,2.09L78.54,97.69v5.67l18.72,5.22.89.13-13,4.1a6,6,0,0,0-1.2-.13,5.81,5.81,0,0,0-5.81,5.81,5.74,5.74,0,0,0,1,3.2c-45.36,6.1-77,27.95-77,53.31h1C3.17,162,11.79,149.86,26.46,140.42Zm65.32-20.14c0-.08,0-.15,0-.23a5.79,5.79,0,0,0-2.32-4.64l14.27-5.88,6.87,1-7.93,7.24a6.59,6.59,0,0,0-1.09-.1A5.81,5.81,0,0,0,97,120C95.23,120.08,93.5,120.17,91.78,120.28ZM98,126.7a4.77,4.77,0,0,1-1.22-3.2,4.82,4.82,0,0,1,4.81-4.81,4.55,4.55,0,0,1,1,.12l2.16,1.33a5.78,5.78,0,0,0-5.22,7.7Zm11.87-.77a4.82,4.82,0,0,1-4.82,4.82,4.74,4.74,0,0,1-2.27-.6l-1.11-.8a4.8,4.8,0,0,1,5.86-7.52l.07,0h0A4.79,4.79,0,0,1,109.87,125.93Zm-2.55-5.4-3.67-2.27,8.24-7.52.58.08,1.55.23ZM109,120l6.17-8.74,16.65,2.46-3.15,5.75a5.29,5.29,0,0,0-1-.08,5.74,5.74,0,0,0-4,1.56C118.87,120.39,113.91,120.07,109,120Zm23.87-6.13,3.25.48-2.3,8.1-4.22-2.6Zm-8.77,14.53a4.81,4.81,0,0,1,3.6-8,4.54,4.54,0,0,1,1,.11l2.17,1.33a5.81,5.81,0,0,0-5.56,5.8,6,6,0,0,0,.32,1.9Zm11.87-.77a4.82,4.82,0,0,1-4.81,4.81,4.75,4.75,0,0,1-2.28-.6l-1.1-.79a4.81,4.81,0,1,1,8.19-3.42Zm-1.22-4.8,2.37-8.33,12.59,1.86,2.69,7.15-.47,0a5.81,5.81,0,0,0-4.51,2.15C143.37,124.56,139.08,123.53,134.71,122.78Zm13.58,9.66a4.81,4.81,0,0,1,3.6-8,4.55,4.55,0,0,1,1,.12l2.15,1.33a5.81,5.81,0,0,0-5.54,5.8,6,6,0,0,0,.32,1.9Zm9.82-4.69a4.8,4.8,0,0,1-2.76,8.74,4.71,4.71,0,0,1-2.27-.6l-1.11-.8a4.8,4.8,0,0,1,5.86-7.52Zm-1.28-2-3.3-2-2.73-7.26,3,.43Zm-15.18-17.21,10.16,2.62L117,106c0-.41-.08-.89-.13-1.28ZM126,47.7a4.27,4.27,0,0,1,.63.57l0,.06c2.51,2.86,1.62,9.09-2,15.26l-14.29-9.11C115.79,48.13,122.62,45.15,126,47.7Zm-22.74,7.23a3.29,3.29,0,1,1,3.29-3.29A3.3,3.3,0,0,1,103.29,54.93Zm2.36.28a4.22,4.22,0,0,0,1.45-1.63l17,10.85c-.43.68-.88,1.35-1.37,2a34.51,34.51,0,0,1-2.4,2.86Zm.91,20.19-.17-.08a5.64,5.64,0,0,1-.67-.4c-3.37-2.52-2.59-9.58,1.79-16.54L119.65,70C115,74.64,109.8,76.86,106.56,75.4Zm3.4,1.31c4.24-.61,9.48-4.16,13.59-9.68s6-11.42,5.44-15.65a17,17,0,0,1-19,25.33Zm17.2-1.46L126,74.15a17.44,17.44,0,0,0,3-3.1A17.72,17.72,0,0,0,130.3,69l1.14,2.58C125.9,81,115.87,98.19,114.18,101a11.16,11.16,0,0,0-3.06-1.44c-.35-.09-.7-.16-1.05-.22ZM103,102c.26-.81,1.25-1.44,2.73-1.74a11.49,11.49,0,0,1,5.15.26c1.93.53,4.36,2.08,5,3.68,0,.22.1,1,.16,1.61l-13-1.95C103,103.39,103,102.58,103,102Zm-6.14,5.41L79.54,102.6V98.93l17.29,5Zm-10-7.42,15.1,2.36c0,.38,0,.93,0,1.36l-4.49-.67Zm11,7.66v-3.55l62.84,9.42-.44,3.33-22.87-3.38h0l-5.07-.75h0l-16.52-2.44h0l-4.2-.62h0l-6-.89h0l-5.22-.77h0Zm2.58,1.38.23,0,1.17.17-13.38,5.5-2.05-1.27Zm-9.62,11A4.81,4.81,0,1,1,86,115.24,4.82,4.82,0,0,1,90.79,120.05ZM84,113.68a4.55,4.55,0,0,1,1,.12l.73.45a5.81,5.81,0,0,0-5.56,5.8,6,6,0,0,0,.25,1.7l0,0a4.81,4.81,0,0,1,3.56-8ZM66.69,124.85A30.23,30.23,0,0,1,53,138.15c-9,4.56-21.56,2.35-25.34,1.52C38.06,133.22,51.36,128.09,66.69,124.85Z"/><path class="cls-2" d="M22.9,173.84c-1.09-5.33,6.48-11.39,16.86-13.5a35.09,35.09,0,0,1,7-.73c7.26,0,12.92,2.5,13.75,6.58.61,3-1.49,6.19-5.27,8.81h1.59c3.43-2.72,5.28-6,4.66-9-1.19-5.87-11.05-8.85-22-6.63S20.72,168.17,21.92,174a6.23,6.23,0,0,0,.28,1h1.1A5.31,5.31,0,0,1,22.9,173.84Z"/><path class="cls-2" d="M154.76,158.15c1.58-2.47,4.58-3.7,8.17-3.7a22.65,22.65,0,0,1,11.89,3.83C182,162.87,185.72,170,184,175H185c1.6-5.41-2.31-12.82-9.68-17.56-8.33-5.35-18-5.28-21.44.16-3.06,4.76-.44,12.06,5.82,17.4h1.61C154.78,169.93,151.83,162.71,154.76,158.15Z"/><polygon class="cls-2" points="173.5 79.12 174.5 79.12 174.5 75.87 177.75 75.87 177.75 74.87 174.5 74.87 174.5 71.62 173.5 71.62 173.5 74.87 170.25 74.87 170.25 75.87 173.5 75.87 173.5 79.12"/><polygon class="cls-2" points="206.52 111.71 209.77 111.71 209.77 114.96 210.77 114.96 210.77 111.71 214.02 111.71 214.02 110.71 210.77 110.71 210.77 107.46 209.77 107.46 209.77 110.71 206.52 110.71 206.52 111.71"/><polygon class="cls-2" points="218.81 59.18 219.81 59.18 219.81 55.93 223.06 55.93 223.06 54.93 219.81 54.93 219.81 51.68 218.81 51.68 218.81 54.93 215.56 54.93 215.56 55.93 218.81 55.93 218.81 59.18"/><polygon class="cls-2" points="62.16 68.81 63.16 68.81 63.16 65.56 66.41 65.56 66.41 64.56 63.16 64.56 63.16 61.31 62.16 61.31 62.16 64.56 58.91 64.56 58.91 65.56 62.16 65.56 62.16 68.81"/><polygon class="cls-2" points="23.22 80.78 24.22 80.78 24.22 77.53 27.47 77.53 27.47 76.53 24.22 76.53 24.22 73.28 23.22 73.28 23.22 76.53 19.97 76.53 19.97 77.53 23.22 77.53 23.22 80.78"/><polygon class="cls-2" points="5.19 118.49 6.19 118.49 6.19 115.24 9.44 115.24 9.44 114.24 6.19 114.24 6.19 110.99 5.19 110.99 5.19 114.24 1.94 114.24 1.94 115.24 5.19 115.24 5.19 118.49"/><polygon class="cls-2" points="203.77 11.59 204.77 11.59 204.77 8.34 208.02 8.34 208.02 7.34 204.77 7.34 204.77 4.09 203.77 4.09 203.77 7.34 200.52 7.34 200.52 8.34 203.77 8.34 203.77 11.59"/><polygon class="cls-2" points="163.25 32.59 164.25 32.59 164.25 29.34 167.5 29.34 167.5 28.34 164.25 28.34 164.25 25.09 163.25 25.09 163.25 28.34 160 28.34 160 29.34 163.25 29.34 163.25 32.59"/></g></svg>